Coordinates
version=1
nRows=21
nColumns=24
inDegrees=no

Units are S.I. units (second, meters, Newtons, ...)
If the header above contains a line with 'inDegrees', this indicates whether rotational values are in degrees (yes) or radians (no).

endheader
time	pelvis_tilt	pelvis_list	pelvis_rotation	pelvis_tx	pelvis_ty	pelvis_tz	hip_flexion_r	hip_adduction_r	hip_rotation_r	knee_angle_r	ankle_angle_r	subtalar_angle_r	mtp_angle_r	hip_flexion_l	hip_adduction_l	hip_rotation_l	knee_angle_l	ankle_angle_l	subtalar_angle_l	mtp_angle_l	lumbar_extension	lumbar_bending	lumbar_rotation
7.67	0.106701	0.0558591	2.3653	-0.0525476	0.961038	-5.88669	0.378758	-0.132421	-0.11375	-0.49482	0.165975	-0.231691	0	-0.0313955	0.188815	0.111233	-0.241797	0.189546	-0.00588713	0	0	0	0
7.675	0.106399	0.0515224	2.38377	-0.0578814	0.960155	-5.89187	0.386042	-0.139039	-0.119445	-0.465684	0.163299	-0.223371	0	-0.0395489	0.188938	0.110856	-0.238787	0.191706	0.00933547	0	0	0	0
7.68	0.106371	0.0475639	2.40229	-0.0632415	0.959255	-5.89714	0.392604	-0.145248	-0.126817	-0.436396	0.161642	-0.213865	0	-0.0477532	0.188529	0.112164	-0.236464	0.193786	0.0217867	0	0	0	0
7.685	0.105299	0.0439311	2.41943	-0.0685338	0.958343	-5.90241	0.398329	-0.151488	-0.134142	-0.407554	0.160894	-0.204664	0	-0.0573941	0.188961	0.115588	-0.233546	0.195195	0.0298952	0	0	0	0
7.69	0.102523	0.0420395	2.43556	-0.0735634	0.957567	-5.90759	0.401789	-0.157134	-0.142059	-0.379111	0.16074	-0.195271	0	-0.0691877	0.189077	0.119223	-0.231101	0.197275	0.0375811	0	0	0	0
7.695	0.100264	0.0400231	2.45223	-0.078702	0.956663	-5.91276	0.405332	-0.162819	-0.152349	-0.351194	0.160667	-0.183749	0	-0.0800409	0.18844	0.12142	-0.229694	0.200083	0.0486032	0	0	0	0
7.7	0.0976757	0.038167	2.46832	-0.0841482	0.955665	-5.91801	0.408111	-0.168633	-0.164677	-0.323829	0.161705	-0.16895	0	-0.091627	0.187671	0.122266	-0.228165	0.202894	0.0610559	0	0	0	0
7.705	0.0945679	0.0364647	2.48327	-0.0895768	0.954639	-5.92337	0.410286	-0.1736	-0.175617	-0.296836	0.162841	-0.155254	0	-0.104067	0.186967	0.123671	-0.226306	0.205494	0.0718649	0	0	0	0
7.71	0.0912981	0.0359409	2.49756	-0.0950048	0.953623	-5.92889	0.411263	-0.177135	-0.187816	-0.270353	0.164426	-0.140893	0	-0.117398	0.1852	0.125994	-0.224873	0.208349	0.0812374	0	0	0	0
7.715	0.0884695	0.0359829	2.51132	-0.100448	0.952541	-5.93447	0.412142	-0.179577	-0.200485	-0.244703	0.165664	-0.125089	0	-0.130566	0.182499	0.12846	-0.223668	0.211267	0.089537	0	0	0	0
7.72	0.0860371	0.036167	2.52423	-0.10588	0.951414	-5.94021	0.413182	-0.180803	-0.211903	-0.219809	0.165957	-0.110312	0	-0.14375	0.179276	0.132659	-0.222026	0.214386	0.0953365	0	0	0	0
7.725	0.0829505	0.0372726	2.53676	-0.111323	0.950313	-5.94611	0.412877	-0.181018	-0.22373	-0.19577	0.167089	-0.0946102	0	-0.158097	0.174887	0.134553	-0.220352	0.218379	0.104737	0	0	0	0
7.73	0.078979	0.0389592	2.54897	-0.116741	0.94926	-5.95201	0.411426	-0.180718	-0.234966	-0.172667	0.167828	-0.0779484	0	-0.172719	0.169932	0.133756	-0.219936	0.223183	0.118985	0	0	0	0
7.735	0.0754621	0.040313	2.56149	-0.12205	0.948127	-5.95777	0.410578	-0.180169	-0.244934	-0.15044	0.168031	-0.0641644	0	-0.185394	0.164844	0.135036	-0.221548	0.228096	0.131735	0	0	0	0
7.74	0.072264	0.0407421	2.57422	-0.127385	0.946864	-5.96353	0.410523	-0.180002	-0.254109	-0.129563	0.168397	-0.0514401	0	-0.196057	0.160213	0.137362	-0.225327	0.232846	0.143475	0	0	0	0
7.745	0.0684257	0.042711	2.58531	-0.13259	0.945653	-5.96936	0.409302	-0.178103	-0.261406	-0.110017	0.168322	-0.0387631	0	-0.207719	0.154448	0.136339	-0.229418	0.238171	0.15677	0	0	0	0
7.75	0.0652648	0.0447054	2.5958	-0.137956	0.944383	-5.97538	0.408238	-0.17556	-0.268974	-0.0914156	0.167645	-0.0241573	0	-0.218874	0.147612	0.1317	-0.233486	0.243773	0.17493	0	0	0	0
7.755	0.0626884	0.0458619	2.60659	-0.143408	0.942979	-5.9814	0.408099	-0.173574	-0.277414	-0.0743598	0.167301	-0.00939759	0	-0.228663	0.141074	0.129608	-0.238168	0.248499	0.191271	0	0	0	0
7.76	0.0600277	0.0464519	2.61779	-0.148822	0.941527	-5.9873	0.408624	-0.172678	-0.287393	-0.0597055	0.16613	0.00729898	0	-0.237082	0.135036	0.129172	-0.244442	0.25229	0.206062	0	0	0	0
7.765	0.0576024	0.0462741	2.62861	-0.15418	0.940047	-5.99307	0.410343	-0.172683	-0.296572	-0.0477544	0.163307	0.0251094	0	-0.24428	0.130017	0.131155	-0.251567	0.255544	0.216477	0	0	0	0
7.77	0.054511	0.0465343	2.6396	-0.159641	0.938644	-5.99885	0.41177	-0.173059	-0.308573	-0.0393323	0.162341	0.047074	0	-0.251878	0.124207	0.131149	-0.259445	0.258786	0.231419	0	0	0	0
